<svg width="24" height="24" viewBox="0 0 24 24" fill="none" xmlns="http://www.w3.org/2000/svg">
<g clip-path="url(#clip0_6015_28306)">
<path d="M3.2 24C2.88174 24 2.57652 23.8736 2.35147 23.6485C2.12643 23.4235 2 23.1183 2 22.8V1.2C2 0.88174 2.12643 0.576515 2.35147 0.351472C2.57652 0.126428 2.88174 0 3.2 0H20C20.3183 0 20.6235 0.126428 20.8485 0.351472C21.0736 0.576515 21.2 0.88174 21.2 1.2V4.8H18.8V2.4H4.4V21.6H18.8V19.2H21.2V22.8C21.2 23.1183 21.0736 23.4235 20.8485 23.6485C20.6235 23.8736 20.3183 24 20 24H3.2ZM18.8 16.8V13.2H10.4V10.8H18.8V7.2L24.8 12L18.8 16.8Z" fill="#F05454"/>
</g>
<defs>
<clipPath id="clip0_6015_28306">
<rect width="24" height="24" fill="white"/>
</clipPath>
</defs>
</svg>
