<svg width="89" height="120" viewBox="0 0 89 120" fill="none" xmlns="http://www.w3.org/2000/svg">
<path d="M56.325 99.9531H7.4531C6.66721 99.9419 5.91459 99.6341 5.34618 99.0913C4.77777 98.5484 4.43561 97.8108 4.38832 97.0262L0.00567148 12.1508C-0.0186261 11.7732 0.035323 11.3948 0.16414 11.0391C0.292958 10.6833 0.493865 10.3581 0.754267 10.0837C1.01467 9.80923 1.32895 9.59154 1.67742 9.44426C2.02588 9.29697 2.40102 9.22326 2.7793 9.22773H51.6512C52.4367 9.23791 53.1893 9.54495 53.7578 10.0872C54.3263 10.6294 54.6686 11.3666 54.716 12.1508L59.091 97.0262C59.1152 97.4033 59.0614 97.7813 58.9331 98.1367C58.8048 98.4921 58.6046 98.8172 58.3451 99.0918C58.0856 99.3664 57.7723 99.5846 57.4247 99.7328C57.0772 99.881 56.7028 99.956 56.325 99.9531Z" fill="#407BFF"/>
<path opacity="0.8" d="M56.325 99.9531H7.4531C6.66721 99.9419 5.91459 99.6341 5.34618 99.0913C4.77777 98.5484 4.43561 97.8108 4.38832 97.0262L0.00567148 12.1508C-0.0186261 11.7732 0.035323 11.3948 0.16414 11.0391C0.292958 10.6833 0.493865 10.3581 0.754267 10.0837C1.01467 9.80923 1.32895 9.59154 1.67742 9.44426C2.02588 9.29697 2.40102 9.22326 2.7793 9.22773H51.6512C52.4367 9.23791 53.1893 9.54495 53.7578 10.0872C54.3263 10.6294 54.6686 11.3666 54.716 12.1508L59.091 97.0262C59.1152 97.4033 59.0614 97.7813 58.9331 98.1367C58.8048 98.4921 58.6046 98.8172 58.3451 99.0918C58.0856 99.3664 57.7723 99.5846 57.4247 99.7328C57.0772 99.881 56.7028 99.956 56.325 99.9531Z" fill="white"/>
<path d="M46.8284 6.46191H41.4229V6.84501H46.8284V6.46191Z" fill="#407BFF"/>
<path d="M39.548 6.46191H37.5674V6.84501H39.548V6.46191Z" fill="#407BFF"/>
<path d="M58.4286 94.567H11.6906C10.938 94.5597 10.216 94.2676 9.67013 93.7494C9.12422 93.2312 8.79489 92.5254 8.74843 91.7742L4.56499 10.5956C4.54175 10.2343 4.5934 9.87213 4.71672 9.53173C4.84004 9.19132 5.03237 8.88008 5.28164 8.6175C5.5309 8.35492 5.83173 8.14668 6.16527 8.00584C6.4988 7.86499 6.85784 7.79458 7.21986 7.79903H53.9579C54.7105 7.80734 55.432 8.10044 55.9772 8.61933C56.5224 9.13822 56.8507 9.84437 56.8962 10.5956L61.0797 91.7742C61.1029 92.135 61.0514 92.4967 60.9282 92.8366C60.8051 93.1766 60.6131 93.4874 60.3642 93.7496C60.1152 94.0119 59.8148 94.2198 59.4818 94.3605C59.1487 94.5011 58.7901 94.5714 58.4286 94.567Z" fill="#407BFF"/>
<path d="M58.4276 92.7012H11.6896C11.4155 92.6918 11.1544 92.582 10.9559 92.3927C10.7574 92.2034 10.6354 91.9478 10.6131 91.6745L6.42579 10.4998C6.41631 10.3918 6.42984 10.283 6.4655 10.1807C6.50117 10.0783 6.55814 9.98469 6.63266 9.90597C6.70739 9.82744 6.79795 9.76566 6.89833 9.72472C6.99871 9.68377 7.10663 9.6646 7.21497 9.66845H53.953C54.2264 9.67879 54.4865 9.78898 54.6842 9.97817C54.8819 10.1674 55.0034 10.4224 55.0256 10.6952L59.2321 91.8699C59.2413 91.9774 59.2277 92.0858 59.1921 92.1877C59.1565 92.2897 59.0998 92.383 59.0256 92.4615C58.9515 92.54 58.8616 92.6019 58.7618 92.6432C58.662 92.6845 58.5547 92.7043 58.4467 92.7012H58.4276ZM7.21497 9.76423C7.11973 9.76115 7.02488 9.77795 6.9365 9.81357C6.84811 9.84919 6.76812 9.90284 6.70162 9.9711C6.63766 10.0419 6.58873 10.1248 6.55778 10.2151C6.52683 10.3053 6.51451 10.4008 6.52156 10.4959L10.705 91.6707C10.7263 91.9193 10.8378 92.1515 11.0184 92.3237C11.199 92.4958 11.4364 92.596 11.6857 92.6054H58.4237C58.5185 92.6092 58.613 92.5926 58.7008 92.557C58.7887 92.5213 58.8679 92.4673 58.9333 92.3985C58.9988 92.3288 59.0487 92.246 59.0798 92.1555C59.1108 92.065 59.1223 91.9689 59.1133 91.8737L54.9337 10.699C54.9133 10.4507 54.8026 10.2185 54.6226 10.0463C54.4426 9.87402 54.2058 9.77369 53.9568 9.76423H7.21497Z" fill="white"/>
<path opacity="0.3" d="M42.0796 39.2537C47.3955 33.7987 47.0494 24.8396 41.3064 19.2431C35.5635 13.6466 26.5985 13.532 21.2826 18.987C15.9666 24.4421 16.3128 33.4011 22.0558 38.9976C27.7987 44.5941 36.7637 44.7087 42.0796 39.2537Z" fill="white"/>
<path d="M43.1434 29.1224C43.2506 31.0051 42.872 32.8836 42.0439 34.5778C41.1475 36.3948 39.756 37.9217 38.0297 38.9825C36.3033 40.0432 34.3125 40.5946 32.2864 40.5732C30.1868 40.5543 28.1278 39.9922 26.3098 38.9416C24.4918 37.8909 22.9768 36.3876 21.9121 34.5778C20.9199 32.9227 20.349 31.0495 20.2495 29.1224C20.155 27.6445 20.3666 26.163 20.871 24.7707C21.3754 23.3783 22.1618 22.1051 23.1809 21.0306C24.2 19.9561 25.4299 19.1035 26.7937 18.5262C28.1574 17.9489 29.6256 17.6593 31.1065 17.6754C34.1885 17.7076 37.1439 18.9064 39.3774 21.0304C41.6109 23.1544 42.9566 26.0459 43.1434 29.1224Z" fill="white"/>
<path d="M42.0322 34.5776C41.1358 36.3947 39.7443 37.9216 38.018 38.9824C36.2916 40.0431 34.3008 40.5945 32.2747 40.5731C30.175 40.5542 28.116 39.9921 26.2981 38.9415C24.4801 37.8908 22.9651 36.3874 21.9004 34.5776C24.8116 32.5671 28.2693 31.4974 31.8073 31.5129C35.4399 31.5265 38.991 32.5909 42.0322 34.5776Z" fill="#407BFF"/>
<path d="M35.2311 28.8564C37.1463 26.891 37.0209 23.6626 34.951 21.6455C32.8811 19.6284 29.6506 19.5865 27.7354 21.5518C25.8202 23.5171 25.9456 26.7455 28.0154 28.7626C30.0853 30.7797 33.3159 30.8217 35.2311 28.8564Z" fill="#407BFF"/>
<path d="M51.7269 62.985H15.1295C14.8107 62.9817 14.5051 62.8578 14.274 62.6381C14.043 62.4184 13.9038 62.1194 13.8844 61.8012L13.6086 56.4378C13.5991 56.2853 13.6212 56.1324 13.6735 55.9888C13.7258 55.8451 13.8071 55.7138 13.9125 55.6031C14.0178 55.4923 14.1449 55.4045 14.2858 55.3451C14.4266 55.2857 14.5782 55.256 14.7311 55.2579H51.3285C51.6466 55.2611 51.9518 55.3845 52.1827 55.6034C52.4136 55.8222 52.5532 56.1203 52.5735 56.4378L52.8494 61.8012C52.8594 61.9541 52.8377 62.1074 52.7857 62.2515C52.7337 62.3956 52.6524 62.5274 52.547 62.6385C52.4415 62.7497 52.3143 62.8379 52.1731 62.8975C52.032 62.9571 51.8801 62.9869 51.7269 62.985Z" fill="white"/>
<path opacity="0.3" d="M40.5221 52.2962H25.2365C24.9164 52.2938 24.6093 52.1697 24.3773 51.9492C24.1454 51.7286 24.0061 51.4281 23.9876 51.1085L23.9301 49.9592C23.9201 49.8064 23.9418 49.6531 23.9938 49.509C24.0458 49.3649 24.1271 49.2331 24.2325 49.1219C24.338 49.0108 24.4652 48.9226 24.6063 48.863C24.7475 48.8034 24.8994 48.7736 25.0526 48.7755H40.3344C40.6532 48.7788 40.9588 48.9027 41.1899 49.1224C41.4209 49.342 41.5601 49.6411 41.5795 49.9592L41.6408 51.1085C41.6502 51.2611 41.6282 51.4141 41.5763 51.5578C41.5243 51.7016 41.4434 51.8332 41.3385 51.9445C41.2337 52.0558 41.1072 52.1444 40.9668 52.2049C40.8263 52.2654 40.675 52.2964 40.5221 52.2962Z" fill="black"/>
<path opacity="0.3" d="M46.2067 88.7702H23.3089C22.7667 88.7636 22.2471 88.5522 21.8542 88.1785C21.4613 87.8048 21.2242 87.2963 21.1904 86.7551L21.0563 84.1118C21.0428 83.852 21.0823 83.5921 21.1725 83.3481C21.2627 83.1041 21.4016 82.881 21.5809 82.6925C21.7601 82.5039 21.9759 82.3538 22.215 82.2514C22.4541 82.149 22.7116 82.0963 22.9718 82.0967H45.8619C46.4041 82.1034 46.9238 82.3147 47.3167 82.6885C47.7096 83.0622 47.9467 83.5706 47.9805 84.1118L48.1145 86.7551C48.128 87.0143 48.0887 87.2735 47.999 87.517C47.9093 87.7605 47.771 87.9832 47.5926 88.1717C47.4142 88.3601 47.1994 88.5104 46.9611 88.6133C46.7229 88.7162 46.4662 88.7696 46.2067 88.7702Z" fill="black"/>
<path d="M52.3987 75.9556H15.7975C15.479 75.9514 15.1738 75.8272 14.943 75.6077C14.7121 75.3882 14.5726 75.0897 14.5524 74.7718L14.2766 69.4084C14.2671 69.2557 14.2892 69.1026 14.3414 68.9588C14.3937 68.815 14.475 68.6834 14.5803 68.5724C14.6856 68.4613 14.8126 68.3731 14.9535 68.3133C15.0943 68.2535 15.246 68.2233 15.399 68.2247H51.9964C52.3152 68.2279 52.6209 68.3519 52.8519 68.5715C53.0829 68.7912 53.2221 69.0902 53.2415 69.4084L53.5211 74.7718C53.53 74.9244 53.5076 75.0772 53.4551 75.2208C53.4027 75.3644 53.3213 75.4957 53.2161 75.6066C53.111 75.7176 52.9841 75.8058 52.8435 75.8658C52.7029 75.9258 52.5515 75.9564 52.3987 75.9556Z" fill="white"/>
<path d="M19.7724 59.1179C19.783 59.2872 19.7585 59.4568 19.7005 59.6162C19.6425 59.7757 19.5523 59.9214 19.4355 60.0444C19.3186 60.1673 19.1777 60.2649 19.0214 60.3309C18.8652 60.3969 18.697 60.43 18.5274 60.4281C18.175 60.4239 17.8373 60.2864 17.5821 60.0434C17.327 59.8003 17.1733 59.4696 17.1521 59.1179C17.141 58.9488 17.1649 58.7792 17.2225 58.6198C17.28 58.4604 17.3699 58.3146 17.4864 58.1916C17.603 58.0686 17.7437 57.971 17.8997 57.9049C18.0558 57.8388 18.2238 57.8058 18.3933 57.8077C18.7461 57.8118 19.0842 57.9492 19.34 58.1921C19.5958 58.4351 19.7502 58.7658 19.7724 59.1179Z" fill="#263238"/>
<path d="M23.8077 59.1179C23.8188 59.287 23.7948 59.4566 23.7373 59.616C23.6797 59.7754 23.5899 59.9212 23.4733 60.0442C23.3568 60.1672 23.216 60.2648 23.06 60.3309C22.9039 60.3969 22.7359 60.43 22.5664 60.4281C22.2138 60.4248 21.8756 60.2876 21.6202 60.0444C21.3649 59.8011 21.2115 59.47 21.1911 59.1179C21.18 58.9488 21.204 58.7792 21.2615 58.6198C21.3191 58.4604 21.4089 58.3146 21.5255 58.1916C21.642 58.0686 21.7828 57.971 21.9388 57.9049C22.0949 57.8388 22.2629 57.8058 22.4324 57.8077C22.785 57.811 23.1232 57.9481 23.3786 58.1914C23.6339 58.4346 23.7873 58.7658 23.8077 59.1179Z" fill="#263238"/>
<path d="M27.8191 59.1179C27.8302 59.287 27.8062 59.4566 27.7487 59.616C27.6911 59.7754 27.6012 59.9212 27.4847 60.0442C27.3681 60.1672 27.2274 60.2648 27.0714 60.3309C26.9153 60.3969 26.7473 60.43 26.5778 60.4281C26.2251 60.4239 25.8869 60.2866 25.6311 60.0436C25.3754 59.8007 25.2209 59.47 25.1987 59.1179C25.1881 58.9486 25.2126 58.7789 25.2706 58.6195C25.3286 58.4601 25.4188 58.3144 25.5357 58.1914C25.6525 58.0685 25.7935 57.9709 25.9497 57.9049C26.1059 57.8389 26.2741 57.8058 26.4437 57.8077C26.7961 57.8119 27.1338 57.9493 27.389 58.1924C27.6441 58.4355 27.7978 58.7661 27.8191 59.1179Z" fill="#263238"/>
<path d="M31.8591 59.1179C31.8696 59.2868 31.8453 59.4561 31.7875 59.6153C31.7298 59.7744 31.6399 59.92 31.5234 60.0429C31.407 60.1658 31.2665 60.2634 31.1107 60.3297C30.9549 60.3959 30.7872 60.4294 30.6179 60.428C30.2651 60.4239 29.9269 60.2866 29.6712 60.0436C29.4154 59.8006 29.2609 59.4699 29.2387 59.1179C29.2282 58.9489 29.2526 58.7795 29.3103 58.6204C29.3681 58.4613 29.458 58.3157 29.5744 58.1928C29.6908 58.0699 29.8313 57.9723 29.9871 57.906C30.1429 57.8398 30.3107 57.8063 30.4799 57.8077C30.8327 57.8118 31.1709 57.9491 31.4267 58.1921C31.6824 58.4351 31.8369 58.7658 31.8591 59.1179Z" fill="#263238"/>
<path d="M20.4509 72.0827C20.462 72.2518 20.438 72.4214 20.3805 72.5808C20.323 72.7402 20.2331 72.886 20.1165 73.009C20 73.1321 19.8593 73.2297 19.7032 73.2957C19.5472 73.3618 19.3791 73.3949 19.2097 73.3929C18.8569 73.3888 18.5187 73.2515 18.263 73.0085C18.0072 72.7655 17.8527 72.4348 17.8305 72.0827C17.82 71.9134 17.8444 71.7438 17.9024 71.5844C17.9604 71.425 18.0506 71.2792 18.1675 71.1563C18.2843 71.0333 18.4253 70.9358 18.5815 70.8698C18.7378 70.8037 18.906 70.7706 19.0756 70.7725C19.428 70.7767 19.7657 70.9142 20.0208 71.1573C20.276 71.4003 20.4296 71.731 20.4509 72.0827Z" fill="#263238"/>
<path d="M24.4775 72.0827C24.488 72.2517 24.4637 72.421 24.4059 72.5802C24.3482 72.7393 24.2583 72.8849 24.1419 73.0078C24.0254 73.1307 23.8849 73.2283 23.7291 73.2946C23.5733 73.3608 23.4056 73.3943 23.2363 73.3929C22.8835 73.3888 22.5454 73.2515 22.2896 73.0085C22.0338 72.7655 21.8793 72.4348 21.8571 72.0827C21.846 71.9136 21.87 71.7441 21.9275 71.5847C21.9851 71.4253 22.075 71.2795 22.1915 71.1565C22.3081 71.0334 22.4488 70.9358 22.6048 70.8698C22.7609 70.8037 22.9289 70.7706 23.0984 70.7725C23.4511 70.7767 23.7893 70.914 24.0451 71.157C24.3008 71.4 24.4553 71.7307 24.4775 72.0827Z" fill="#263238"/>
<path d="M28.5039 72.0827C28.5144 72.252 28.49 72.4217 28.432 72.5811C28.374 72.7405 28.2838 72.8862 28.1669 73.0092C28.0501 73.1322 27.9091 73.2297 27.7529 73.2957C27.5966 73.3618 27.4284 73.3949 27.2588 73.3929C26.9062 73.3896 26.568 73.2525 26.3126 73.0092C26.0573 72.766 25.9039 72.4348 25.8835 72.0827C25.8724 71.9136 25.8964 71.7441 25.9539 71.5847C26.0115 71.4253 26.1013 71.2795 26.2179 71.1565C26.3344 71.0334 26.4751 70.9358 26.6312 70.8698C26.7873 70.8037 26.9553 70.7706 27.1247 70.7725C27.4775 70.7767 27.8157 70.914 28.0714 71.157C28.3272 71.4 28.4817 71.7307 28.5039 72.0827Z" fill="#263238"/>
<path d="M32.5261 72.0827C32.5372 72.2518 32.5132 72.4214 32.4557 72.5808C32.3981 72.7402 32.3083 72.886 32.1917 73.009C32.0752 73.1321 31.9345 73.2297 31.7784 73.2957C31.6223 73.3618 31.4543 73.3949 31.2849 73.3929C30.9321 73.3888 30.5939 73.2515 30.3382 73.0085C30.0824 72.7655 29.9279 72.4348 29.9057 72.0827C29.8952 71.9134 29.9196 71.7438 29.9776 71.5844C30.0356 71.425 30.1258 71.2792 30.2427 71.1563C30.3595 71.0333 30.5005 70.9358 30.6567 70.8698C30.813 70.8037 30.9812 70.7706 31.1508 70.7725C31.5034 70.7758 31.8416 70.913 32.097 71.1562C32.3523 71.3995 32.5057 71.7307 32.5261 72.0827Z" fill="#263238"/>
<path d="M36.5534 72.0827C36.5645 72.2518 36.5406 72.4214 36.483 72.5808C36.4255 72.7402 36.3356 72.886 36.2191 73.009C36.1025 73.132 35.9618 73.2296 35.8057 73.2957C35.6497 73.3617 35.4817 73.3949 35.3122 73.3929C34.9594 73.3888 34.6213 73.2514 34.3655 73.0085C34.1097 72.7655 33.9553 72.4348 33.933 72.0827C33.9225 71.9137 33.9469 71.7444 34.0046 71.5853C34.0624 71.4261 34.1523 71.2806 34.2687 71.1577C34.3852 71.0348 34.5256 70.9371 34.6814 70.8709C34.8372 70.8046 35.005 70.7711 35.1743 70.7725C35.527 70.7766 35.8652 70.914 36.121 71.1569C36.3768 71.3999 36.5312 71.7306 36.5534 72.0827Z" fill="#263238"/>
<path d="M40.5791 72.0827C40.5896 72.252 40.5652 72.4217 40.5072 72.5811C40.4492 72.7405 40.359 72.8862 40.2421 73.0092C40.1253 73.1322 39.9843 73.2297 39.8281 73.2957C39.6718 73.3618 39.5036 73.3949 39.334 73.3929C38.9816 73.3887 38.6439 73.2513 38.3888 73.0082C38.1336 72.7652 37.98 72.4345 37.9587 72.0827C37.9476 71.9136 37.9716 71.7441 38.0291 71.5847C38.0867 71.4253 38.1765 71.2795 38.2931 71.1565C38.4096 71.0334 38.5503 70.9358 38.7064 70.8698C38.8624 70.8037 39.0305 70.7706 39.1999 70.7725C39.5527 70.7767 39.8909 70.914 40.1466 71.157C40.4024 71.4 40.5569 71.7307 40.5791 72.0827Z" fill="#263238"/>
<path d="M84.1336 27.5928C84.2294 27.7384 84.2792 27.815 84.3405 27.9184L84.5129 28.2019C84.6239 28.3935 84.7236 28.585 84.8193 28.7727C85.0109 29.1558 85.2024 29.5389 85.3557 29.922C85.6768 30.6829 85.9531 31.4619 86.1832 32.2551C86.647 33.8219 86.9524 35.4313 87.0949 37.0591L87.1217 37.3618C87.125 37.423 87.125 37.4844 87.1217 37.5457V37.7487C87.1281 38.0151 87.1127 38.2816 87.0758 38.5456C87.0023 39.0348 86.8738 39.5141 86.6927 39.9745C86.3561 40.7968 85.9103 41.5699 85.3672 42.2731C84.3541 43.5704 83.1517 44.7082 81.8005 45.6482L80.7432 44.4108C81.7053 43.3241 82.5574 42.1448 83.2869 40.8901C83.6152 40.3209 83.8725 39.7137 84.0531 39.0819C84.1263 38.8143 84.1687 38.5393 84.1796 38.2621C84.1914 38.1436 84.1914 38.0242 84.1796 37.9058V37.8253C84.1834 37.7897 84.1834 37.7537 84.1796 37.7181L84.1336 37.4499C83.8872 36.0221 83.539 34.6139 83.0916 33.2358C82.8694 32.5501 82.5974 31.8873 82.3254 31.2399C82.1913 30.9142 82.038 30.5963 81.8848 30.2898L81.6473 29.8377L81.5285 29.627L81.4289 29.4585L84.1336 27.5928Z" fill="#803E3C"/>
<path d="M80.5713 45.6546L81.9581 48.5853L83.0576 46.1067C83.0576 46.1067 82.0807 43.9613 80.759 44.1605L80.5713 45.6546Z" fill="#7F3E3B"/>
<path d="M82.9502 48.7326L84.0536 46.9244L83.0575 46.1084L81.958 48.587L82.9502 48.7326Z" fill="#7F3E3B"/>
<path d="M76.7142 116.319C77.001 116.312 77.2862 116.273 77.5646 116.204C77.5787 116.2 77.5915 116.192 77.6015 116.181C77.6116 116.17 77.6187 116.157 77.6221 116.143C77.6244 116.128 77.6224 116.113 77.6163 116.099C77.6102 116.086 77.6002 116.074 77.5876 116.066C77.4765 115.993 76.5035 115.365 76.128 115.533C76.0864 115.553 76.0507 115.583 76.0244 115.621C75.9982 115.658 75.9824 115.702 75.9786 115.748C75.967 115.817 75.9724 115.888 75.9945 115.955C76.0165 116.022 76.0544 116.082 76.105 116.131C76.2787 116.265 76.4951 116.332 76.7142 116.319ZM77.3463 116.093C76.7908 116.208 76.3694 116.189 76.197 116.039C76.1618 116.004 76.136 115.961 76.1219 115.913C76.1079 115.866 76.106 115.816 76.1165 115.767C76.1165 115.702 76.1548 115.683 76.1816 115.671C76.3885 115.579 76.9517 115.851 77.3463 116.093Z" fill="#407BFF"/>
<path d="M77.5441 116.204H77.5824C77.594 116.196 77.6035 116.186 77.6102 116.174C77.6168 116.162 77.6205 116.148 77.6208 116.135C77.6208 116.096 77.6208 115.173 77.2683 114.863C77.225 114.824 77.1739 114.795 77.1183 114.778C77.0628 114.761 77.0041 114.756 76.9465 114.763C76.8861 114.764 76.8277 114.785 76.781 114.823C76.7342 114.862 76.7021 114.915 76.6898 114.974C76.617 115.338 77.1994 116.027 77.5058 116.204H77.5441ZM76.9963 114.905C77.0273 114.904 77.0582 114.909 77.0871 114.921C77.1161 114.932 77.1425 114.949 77.1649 114.97C77.367 115.268 77.4714 115.622 77.4637 115.982C77.1572 115.736 76.7933 115.215 76.8392 114.997C76.8392 114.962 76.8661 114.916 76.9618 114.905H76.9963Z" fill="#407BFF"/>
<path d="M73.098 114.755C73.107 114.744 73.1128 114.731 73.1149 114.717C73.1169 114.702 73.1151 114.688 73.1096 114.674C73.1042 114.661 73.0952 114.65 73.0837 114.641C73.0723 114.632 73.0587 114.627 73.0444 114.625C72.8873 114.625 71.512 114.56 71.1978 114.897V114.92C71.1719 114.953 71.155 114.993 71.149 115.034C71.1429 115.076 71.1479 115.119 71.1634 115.158C71.1838 115.223 71.22 115.283 71.2687 115.332C71.3174 115.381 71.3772 115.417 71.443 115.437C71.8874 115.575 72.6728 115.073 73.1018 114.763L73.098 114.755ZM71.3128 114.997C71.4852 114.813 72.2437 114.763 72.8107 114.771C72.2169 115.177 71.7227 115.368 71.4737 115.292C71.4303 115.279 71.3908 115.255 71.3587 115.223C71.3266 115.191 71.303 115.151 71.2898 115.108C71.2821 115.093 71.278 115.077 71.278 115.06C71.278 115.043 71.2821 115.027 71.2898 115.012L71.3128 114.997Z" fill="#407BFF"/>
<path d="M73.0971 114.756C73.1029 114.744 73.1059 114.731 73.1059 114.717C73.1059 114.704 73.1029 114.691 73.0971 114.679C73.078 114.649 72.6489 113.913 72.1432 113.76C72.0706 113.738 71.9944 113.732 71.9193 113.741C71.8442 113.751 71.7718 113.775 71.7065 113.813C71.5226 113.921 71.5111 114.047 71.5341 114.127C71.6337 114.484 72.6106 114.798 73.032 114.794C73.0453 114.794 73.0582 114.79 73.0696 114.784C73.0811 114.777 73.0905 114.767 73.0971 114.756ZM71.7218 113.99C71.7434 113.968 71.768 113.95 71.7946 113.936C71.8419 113.906 71.8952 113.886 71.9508 113.879C72.0064 113.872 72.063 113.877 72.1164 113.894C72.4497 113.982 72.76 114.411 72.9018 114.622C72.4459 114.572 71.7525 114.292 71.695 114.078C71.6901 114.061 71.6901 114.044 71.6948 114.028C71.6996 114.011 71.709 113.997 71.7218 113.986V113.99Z" fill="#407BFF"/>
<path d="M77.3149 16.3711C76.9318 18.2866 76.1043 22.4279 77.4337 23.6998C77.4337 23.6998 76.9127 25.6153 73.3767 25.6153C69.4844 25.6153 71.5186 23.6998 71.5186 23.6998C73.641 23.1941 73.5874 21.6157 73.2158 20.137L77.3149 16.3711Z" fill="#7F3E3B"/>
<path d="M70.834 11.8813C70.8556 11.8848 70.8776 11.8848 70.8991 11.8813C70.9173 11.8723 70.9336 11.8599 70.9469 11.8446C70.9602 11.8293 70.9704 11.8115 70.9768 11.7923C70.9832 11.773 70.9858 11.7527 70.9843 11.7325C70.9828 11.7122 70.9773 11.6925 70.9681 11.6744C70.8651 11.4559 70.7111 11.2653 70.5191 11.1186C70.3271 10.972 70.1027 10.8735 69.8648 10.8316C69.8249 10.8283 69.7852 10.8403 69.7539 10.8652C69.7226 10.8901 69.7019 10.9261 69.6962 10.9657C69.6919 11.0058 69.7035 11.0459 69.7286 11.0775C69.7537 11.1091 69.7903 11.1294 69.8303 11.1343C70.0181 11.1703 70.1946 11.2506 70.3452 11.3686C70.4958 11.4865 70.6161 11.6386 70.6961 11.8123C70.7109 11.835 70.7315 11.8533 70.7557 11.8654C70.78 11.8775 70.807 11.883 70.834 11.8813Z" fill="#263238"/>
<path d="M69.6714 13.5635C69.3698 14.1227 68.9935 14.6382 68.5527 15.0959C68.6721 15.205 68.8137 15.2869 68.9678 15.3359C69.122 15.3849 69.2849 15.3997 69.4454 15.3794L69.6714 13.5635Z" fill="#630F0F"/>
<path d="M69.9598 13.1311C69.9291 13.3878 69.7644 13.5793 69.5997 13.5602C69.4349 13.541 69.32 13.315 69.3507 13.0583C69.3813 12.8016 69.546 12.6101 69.7338 12.6292C69.9215 12.6484 69.9866 12.8744 69.9598 13.1311Z" fill="#263238"/>
<path d="M69.7833 12.6516L69.1934 12.4141C69.1934 12.4141 69.4424 12.9198 69.7833 12.6516Z" fill="#263238"/>
<path d="M76.4794 114.027L73.3533 114.755L71.4531 107.568L74.5792 106.84L76.4794 114.027Z" fill="#7F3E3B"/>
<path d="M81.2759 116.127H78.0693L78.3183 108.698H81.5287L81.2759 116.127Z" fill="#7F3E3B"/>
<path d="M77.8126 115.756H81.4175C81.48 115.755 81.5406 115.778 81.5878 115.818C81.6351 115.859 81.6658 115.916 81.6742 115.978L82.0841 118.828C82.0922 118.9 82.085 118.973 82.0629 119.042C82.0407 119.112 82.0042 119.175 81.9557 119.229C81.9072 119.283 81.8478 119.326 81.7814 119.355C81.7151 119.385 81.6433 119.4 81.5708 119.399C80.3142 119.38 79.7089 119.303 78.1229 119.303C77.146 119.303 75.7208 119.407 74.3762 119.407C73.0315 119.407 72.9549 118.074 73.518 117.955C76.0312 117.411 76.4296 116.668 77.2762 115.955C77.4258 115.827 77.6158 115.757 77.8126 115.756Z" fill="#263238"/>
<path d="M73.0776 114.277L76.3531 112.772C76.4087 112.745 76.4721 112.74 76.5314 112.757C76.5907 112.774 76.6417 112.812 76.6749 112.864L78.2418 115.285C78.2784 115.347 78.3015 115.416 78.3097 115.488C78.3178 115.56 78.3108 115.633 78.2892 115.702C78.2675 115.771 78.2317 115.834 78.1839 115.888C78.1362 115.943 78.0776 115.986 78.0119 116.017C76.8626 116.522 76.2803 116.71 74.8399 117.373C73.9549 117.779 72.1582 118.714 70.9399 119.288C69.7217 119.863 69.0934 118.671 69.5531 118.327C71.6103 116.794 72.2003 115.695 72.6715 114.695C72.7512 114.511 72.8957 114.362 73.0776 114.277Z" fill="#263238"/>
<path opacity="0.2" d="M71.4531 107.568L72.4722 111.422L75.5599 110.544L74.583 106.84L71.4531 107.568Z" fill="black"/>
<path opacity="0.2" d="M81.5302 108.698H78.3198L78.1934 112.529H81.4037L81.5302 108.698Z" fill="black"/>
<path d="M82.9842 24.4272C84.3174 24.7222 85.7426 29.5148 85.7426 29.5148L81.9729 33.5258C81.9729 33.5258 78.8429 29.0206 79.4827 27.3656C80.1302 25.6378 81.3944 24.0824 82.9842 24.4272Z" fill="#263238"/>
<path opacity="0.4" d="M80.8548 27.4812C80.1806 26.8644 79.7247 27.0482 79.4144 27.5386C79.1079 28.9637 80.9238 31.9481 81.6555 33.0782C81.9926 31.7297 82.3796 28.8871 80.8548 27.4812Z" fill="black"/>
<path d="M66.094 24.5248C66.094 24.5248 64.5616 25.0612 67.6264 43.8904H80.6518C80.4334 38.5884 80.4257 35.3167 82.9504 24.429C81.1252 24.0525 79.2751 23.8092 77.4146 23.7012C75.4455 23.5592 73.4687 23.5592 71.4995 23.7012C68.9749 23.9348 66.094 24.5248 66.094 24.5248Z" fill="#263238"/>
<path opacity="0.4" d="M65.9746 31.7501C66.0589 32.6657 66.17 33.6963 66.3156 34.8609C67.3844 33.8993 68.2579 31.164 67.9361 29.5703C67.1725 30.1901 66.5106 30.9256 65.9746 31.7501Z" fill="black"/>
<path d="M67.3684 28.8868C66.6655 30.6558 65.8741 32.3884 64.997 34.0778C64.1301 35.8282 63.1042 37.4953 61.9322 39.0581L61.6871 39.3607L61.5645 39.5101C61.5223 39.5599 61.4878 39.6059 61.4227 39.6749C61.1922 39.9264 60.9353 40.1524 60.6565 40.3491C60.1637 40.6902 59.6244 40.9586 59.0552 41.146C58.0624 41.463 57.0317 41.646 55.9904 41.69C54.0403 41.7675 52.0883 41.5937 50.1826 41.1728L50.3933 39.5638C51.2744 39.5638 52.1977 39.5638 53.075 39.491C53.9561 39.4476 54.8338 39.3504 55.7031 39.1998C56.5104 39.0739 57.3 38.8527 58.0553 38.5409C58.3603 38.4106 58.6454 38.2378 58.9019 38.0275C58.9999 37.9455 59.0885 37.853 59.1663 37.7517C59.1663 37.7517 59.2122 37.6904 59.2429 37.6483L59.331 37.5219L59.5111 37.269C60.4724 35.7841 61.3288 34.2339 62.074 32.6297C62.8402 31.0015 63.6064 29.3121 64.3075 27.6494L67.3684 28.8868Z" fill="#803E3C"/>
<path d="M66.0951 24.5252C64.4976 24.9082 62.5361 29.2909 62.5361 29.2909L65.8461 34.1562C65.8461 34.1562 70.2556 28.6051 69.7307 26.9119C69.1944 25.1458 68.0451 24.0501 66.0951 24.5252Z" fill="#263238"/>
<path d="M51.3143 39.8099L48.5522 38.5342L48.2764 41.281C48.2764 41.281 50.575 41.9591 51.7243 41.281L51.3143 39.8099Z" fill="#7F3E3B"/>
<path d="M46.9011 38.2588L46.6367 40.3505L48.2764 41.2814L48.5522 38.5346L46.9011 38.2588Z" fill="#7F3E3B"/>
<path d="M78.7019 13.318C78.1158 16.4479 77.9357 17.7888 76.1428 19.2101C73.4611 21.3478 69.7259 19.9456 69.3658 16.7046C69.0363 13.7854 70.0477 9.15756 73.2926 8.27643C74.0073 8.07924 74.7607 8.06844 75.4808 8.24506C76.201 8.42168 76.8639 8.77984 77.4063 9.28538C77.9487 9.79092 78.3526 10.427 78.5794 11.1329C78.8062 11.8389 78.8484 12.5911 78.7019 13.318Z" fill="#7F3E3B"/>
<path d="M71.8245 13.978C71.6444 15.5755 71.5754 19.7245 75.0846 19.8547C79.3792 20.0118 80.6664 16.3417 80.2833 14.8744C82.5206 13.0547 82.8424 9.9248 80.3292 7.53044C77.8161 5.13607 72.2842 6.47309 70.7518 8.80616C68.8095 11.6985 71.8245 13.978 71.8245 13.978Z" fill="#263238"/>
<path d="M76.1277 8.46068C75.9208 6.77505 76.0817 5.61426 77.6601 5.61426C79.2384 5.61426 81.3914 6.18507 82.1806 7.79792C82.9698 9.41076 83.0349 11.9354 80.8321 11.6787C78.6293 11.422 76.3767 10.4758 76.1277 8.46068Z" fill="#407BFF"/>
<path d="M78.5717 8.05477C78.1886 6.04734 79.9853 0.392807 84.3488 0.00970821C86.3716 -0.162686 87.3064 2.01331 86.2643 2.37342C88.1798 2.35044 89.4057 4.88272 87.6205 5.26199C89.0303 6.1661 88.6817 8.0203 86.6704 8.93207C85.1725 9.62165 79.0889 10.8361 78.5717 8.05477Z" fill="#263238"/>
<path d="M83.2342 10.2118C81.8282 10.2118 80.361 10.0049 79.4492 9.39579C79.1943 9.24211 78.9796 9.0299 78.8231 8.77674C78.6665 8.52357 78.5725 8.23674 78.5489 7.94002C78.5478 7.91482 78.5563 7.89014 78.5726 7.87094C78.589 7.85175 78.612 7.83947 78.637 7.83658C78.6497 7.83498 78.6626 7.83603 78.6749 7.83969C78.6871 7.84334 78.6985 7.84951 78.7082 7.8578C78.7179 7.8661 78.7258 7.87633 78.7314 7.88785C78.737 7.89936 78.74 7.91191 78.7405 7.92469C78.7636 8.19246 78.8495 8.45101 78.9913 8.67933C79.1331 8.90765 79.3267 9.09931 79.5565 9.23872C81.2919 10.388 85.3029 10.0049 86.5518 9.62182C87.6322 9.26937 88.3639 8.58362 88.5095 7.79444C88.5549 7.50484 88.5191 7.20833 88.4062 6.93782C88.2932 6.66732 88.1075 6.4334 87.8697 6.26205C87.8605 6.25345 87.8532 6.24306 87.8483 6.23153C87.8433 6.22 87.8407 6.20757 87.8407 6.195C87.8407 6.18244 87.8433 6.17001 87.8483 6.15848C87.8532 6.14695 87.8605 6.13656 87.8697 6.12796C87.8876 6.11041 87.9117 6.10059 87.9367 6.10059C87.9618 6.10059 87.9859 6.11041 88.0038 6.12796C88.2712 6.32308 88.4791 6.58871 88.6043 6.89517C88.7294 7.20164 88.7669 7.53686 88.7125 7.8634C88.5555 8.72537 87.7778 9.46092 86.6285 9.83636C85.5195 10.1159 84.3775 10.2422 83.2342 10.2118Z" fill="#263238"/>
<path d="M70.8478 13.5638C70.491 14.0642 70.3439 14.6842 70.4378 15.2916C70.5643 16.0961 71.3458 16.1497 71.9128 15.6364C72.4798 15.123 72.974 14.1959 72.5564 13.5293C72.4636 13.3853 72.3355 13.2675 72.1842 13.187C72.033 13.1065 71.8637 13.0661 71.6924 13.0695C71.5212 13.073 71.3536 13.1202 71.2058 13.2067C71.0579 13.2933 70.9347 13.4162 70.8478 13.5638Z" fill="#7F3E3B"/>
<path d="M71.0664 43.8896C71.0664 43.8896 72.9283 65.914 74.8629 78.3264C76.4221 88.352 77.6557 111.786 77.6557 111.786H82.0307C82.0307 111.786 83.5861 89.0531 82.7969 79.1385C80.7933 54.0456 85.264 51.9998 80.663 43.8935L71.0664 43.8896Z" fill="#407BFF"/>
<path opacity="0.4" d="M76.576 52.2139C74.8422 54.0336 73.4429 56.1449 72.4424 58.4507C72.9519 63.4003 73.5572 68.894 74.2008 73.7057C76.8417 66.8686 77.6602 59.4626 76.576 52.2139Z" fill="black"/>
<path d="M68.0067 43.752C68.0067 43.752 63.965 67.8067 63.3291 78.6484C64.9151 88.6741 71.4048 109.867 71.4048 109.867L75.3852 108.423C75.3852 108.423 73.1824 85.3143 70.788 78.9893C76.1782 60.842 80.1395 56.2525 78.9863 43.8899C76.2242 43.8899 68.0067 43.752 68.0067 43.752Z" fill="#407BFF"/>
<path d="M70.8723 110.923L76.251 109.464L75.9445 107.318L70.1865 108.878L70.8723 110.923Z" fill="#263238"/>
<path d="M77.0541 111.875H82.6282L82.9193 109.921L77.0234 109.722L77.0541 111.875Z" fill="#263238"/>
<path d="M80.8552 43.1237L81.4413 44.2921C81.4873 44.3841 81.38 44.476 81.2306 44.476H67.5617C67.4467 44.476 67.3471 44.4186 67.3395 44.3419L67.2207 43.1926C67.2207 43.1122 67.3165 43.0432 67.4429 43.0432H80.6406C80.6803 43.0378 80.7206 43.0423 80.7581 43.0564C80.7955 43.0704 80.8289 43.0936 80.8552 43.1237Z" fill="#407BFF"/>
<path opacity="0.5" d="M80.8552 43.1237L81.4413 44.2921C81.4873 44.3841 81.38 44.476 81.2306 44.476H67.5617C67.4467 44.476 67.3471 44.4186 67.3395 44.3419L67.2207 43.1926C67.2207 43.1122 67.3165 43.0432 67.4429 43.0432H80.6406C80.6803 43.0378 80.7206 43.0423 80.7581 43.0564C80.7955 43.0704 80.8289 43.0936 80.8552 43.1237Z" fill="black"/>
<path d="M79.0821 44.5937H79.4346C79.5074 44.5937 79.561 44.5554 79.5572 44.5132L79.3886 42.9808C79.3886 42.9349 79.3235 42.9004 79.2545 42.9004H78.8982C78.8293 42.9004 78.7757 42.9349 78.7795 42.9808L78.9442 44.5132C78.9519 44.563 79.0132 44.5937 79.0821 44.5937Z" fill="#407BFF"/>
<path d="M74.3379 33.4387C74.2956 33.4381 74.2546 33.424 74.2209 33.3985C74.1871 33.373 74.1624 33.3375 74.1502 33.297C72.9013 28.6768 70.3192 24.8688 69.0665 24.2942C68.9691 24.2344 68.8522 24.2151 68.7408 24.2405C68.7177 24.2527 68.6923 24.26 68.6662 24.262C68.6402 24.2641 68.6139 24.2607 68.5892 24.2522C68.5645 24.2437 68.5418 24.2302 68.5224 24.2126C68.5031 24.195 68.4876 24.1736 68.4769 24.1498C68.4661 24.1259 68.4604 24.1001 68.46 24.074C68.4596 24.0478 68.4645 24.0219 68.4746 23.9977C68.4846 23.9736 68.4994 23.9517 68.5182 23.9335C68.537 23.9153 68.5593 23.9012 68.5837 23.8919C68.6885 23.8535 68.8003 23.8383 68.9115 23.8476C69.0226 23.8569 69.1304 23.8903 69.2273 23.9455C70.5529 24.5738 73.1733 28.3282 74.4835 33.0518C75.4221 33.0518 76.8702 32.9254 77.2226 32.8947C77.6593 32.3737 80.8697 28.3588 79.6706 23.9647C79.6637 23.9405 79.6617 23.9152 79.6647 23.8903C79.6677 23.8654 79.6757 23.8413 79.6882 23.8195C79.7007 23.7977 79.7175 23.7786 79.7375 23.7634C79.7575 23.7482 79.7804 23.7372 79.8047 23.731C79.8535 23.7181 79.9053 23.7249 79.9491 23.75C79.9929 23.7751 80.0249 23.8165 80.0384 23.8651C81.3754 28.7534 77.4984 33.1629 77.4563 33.205C77.4413 33.2236 77.4228 33.239 77.4017 33.2502C77.3806 33.2614 77.3575 33.2682 77.3337 33.2702C77.3146 33.2702 75.4029 33.4387 74.3379 33.4387Z" fill="#407BFF"/>
<path d="M80.6855 36.1424C78.5976 32.2309 77.7433 31.9551 77.3717 30.6985C77.6532 29.9959 78.0551 29.3477 78.5593 28.783C78.3064 28.7103 77.7624 28.603 77.41 28.5379C77.4483 28.3655 77.4904 28.1969 77.5287 28.0322C77.1452 27.9893 76.7573 28.0074 76.3794 28.0858V27.7027C75.8928 27.5968 75.3931 27.5646 74.8969 27.6069C74.9403 27.7883 74.9824 27.9722 75.0233 28.1586C74.6402 28.2314 74.0579 28.3501 73.7782 28.4306C74.3216 29.0461 74.7208 29.7751 74.9466 30.5645C73.8203 32.4991 69.4454 44.9345 76.5633 45.8884C83.6813 46.8423 82.7695 40.0576 80.6855 36.1424Z" fill="#407BFF"/>
<path opacity="0.4" d="M80.6855 36.1424C78.5976 32.2309 77.7433 31.9551 77.3717 30.6985C77.6532 29.9959 78.0551 29.3477 78.5593 28.783C78.3064 28.7103 77.7624 28.603 77.41 28.5379C77.4483 28.3655 77.4904 28.1969 77.5287 28.0322C77.1452 27.9893 76.7573 28.0074 76.3794 28.0858V27.7027C75.8928 27.5968 75.3931 27.5646 74.8969 27.6069C74.9403 27.7883 74.9824 27.9722 75.0233 28.1586C74.6402 28.2314 74.0579 28.3501 73.7782 28.4306C74.3216 29.0461 74.7208 29.7751 74.9466 30.5645C73.8203 32.4991 69.4454 44.9345 76.5633 45.8884C83.6813 46.8423 82.7695 40.0576 80.6855 36.1424Z" fill="white"/>
<path d="M74.6562 30.193C74.6119 30.3903 74.5926 30.5923 74.5988 30.7944C74.5988 30.9362 74.9819 31.032 75.4071 31.0741C75.8324 31.1162 77.6176 31.1852 77.5601 30.986C77.5027 30.7868 77.6482 30.5148 77.6559 30.3462C77.6636 30.1777 76.9472 30.17 76.3457 30.193C75.7442 30.216 74.775 29.9784 74.6562 30.193Z" fill="#407BFF"/>
<path d="M70.514 44.5937H70.8665C70.9354 44.5937 70.989 44.5554 70.9852 44.5132L70.8205 42.9808C70.8205 42.9349 70.7554 42.9004 70.6826 42.9004H70.3416C70.2727 42.9004 70.219 42.9349 70.2228 42.9808L70.3876 44.5132C70.3799 44.563 70.4412 44.5937 70.514 44.5937Z" fill="#407BFF"/>
</svg>
