<svg width="30" height="24" viewBox="0 0 30 24" fill="none" xmlns="http://www.w3.org/2000/svg">
<path d="M25.622 0C25.6428 0.00306881 25.5678 0.00576947 25.4131 0.00576947C24.2459 0.00576947 23.1572 1.23698 23.1572 2.92114C23.1572 3.76997 23.4543 4.52969 23.8901 5.0558L24.5343 5.83074L23.5215 5.98234C22.8557 6.08158 22.4079 6.37711 22.032 6.8626C21.6561 7.34808 21.3798 8.03979 21.1966 8.84775C20.8696 10.2896 20.8441 12.0654 20.8419 13.6447H22.761L22.7984 14.1799L23.2457 20.7221H27.3952L27.9015 14.1739L27.9429 13.6446H29.9605C29.9454 12.0867 29.8584 10.3344 29.4975 8.90329C29.2949 8.10013 29.0068 7.40854 28.6345 6.91624C28.2622 6.424 27.8338 6.12755 27.2434 6.02058L26.2522 5.84031L26.9006 5.08846C27.3563 4.55921 27.6689 3.79109 27.6689 2.92108C27.6689 1.34125 26.6916 0.13423 25.6337 0.00190255L25.6218 6.13425e-05L25.622 0ZM10.1905 0.207145C7.29647 0.207513 3.8953 0.536919 0 1.30609V2.47997C16.8986 0.169276 21.5345 4.82147 14.2651 7.3498C6.86761 9.92269 0.992851 22.8324 24.3157 23.9578C24.5907 23.9847 24.8736 24 25.1628 24C26.5676 24 27.8323 23.6654 28.7015 23.1657C29.5708 22.666 30 22.0523 30 21.4529C30 20.8536 29.5708 20.2399 28.7015 19.7402C28.687 19.7317 28.6712 19.7235 28.6563 19.7151L28.5302 21.3398L28.4888 21.871H22.1424L22.1069 21.334L21.9001 18.2959C13.8174 18.4677 11.6068 12.127 16.8501 10.2881C18.1354 9.83738 19.1884 9.31617 20.0144 8.75188C20.0252 8.70143 20.0346 8.6503 20.046 8.60028C20.2516 7.69351 20.5665 6.85118 21.0922 6.17211C21.4041 5.7693 21.8009 5.4313 22.2725 5.19194C22.0755 2.58056 17.964 0.205979 10.1904 0.207145H10.1905Z" fill="#000066"/>
</svg>
