<svg width="29" height="34" viewBox="0 0 29 34" fill="none" xmlns="http://www.w3.org/2000/svg">
<path d="M21.3649 17.3166C21.3649 17.3166 20.9002 21.7049 15.8441 23.3364C18.5839 20.9953 18.887 18.0332 14.6267 16.2316C14.0075 15.971 13.2919 15.7334 12.473 15.5261C9.75519 14.8387 7.83228 13.645 6.51555 12.4925C6.10608 12.1342 5.75582 11.7799 5.45775 11.4468C4.15607 9.98637 3.64222 7.97843 4.13901 6.08422C4.62575 4.2202 6.01274 2.017 9.62372 0.722656C9.6177 0.727688 9.59662 0.747818 9.5615 0.781032C9.56049 0.782038 9.56049 0.783045 9.55949 0.783045C9.32464 1.01051 8.50671 1.8469 8.00992 2.92686C7.88548 3.32342 7.81823 3.74514 7.81823 4.18296C7.81823 5.00224 8.05408 5.76717 8.46054 6.41233C8.75058 6.87331 9.15503 7.24872 9.62171 7.52954C9.94086 7.72177 10.3042 7.90596 10.7177 8.0821C10.9184 8.16765 11.1301 8.25119 11.3549 8.33271C11.365 8.33674 11.376 8.34076 11.3871 8.34378C11.8006 8.49274 12.2562 8.63365 12.756 8.76449C14.8907 9.32612 16.4994 10.081 17.7108 10.9103C17.7118 10.9103 17.7118 10.9113 17.7118 10.9113C18.3089 11.319 18.8097 11.7457 19.2292 12.1765C19.3306 12.2812 19.428 12.3858 19.5203 12.4905C21.6409 14.894 21.3649 17.3166 21.3649 17.3166Z" fill="#000066"/>
<path d="M0.866113 31.3592C0.603168 31.2515 0.392413 31.0904 0.234847 30.8791C0.120436 30.7261 0.0461696 30.5499 0.0100397 30.3517C-0.0120396 30.2279 0.0833001 30.1141 0.207747 30.1141H0.99859C1.0849 30.1141 1.16519 30.1685 1.18928 30.252C1.21838 30.3547 1.26856 30.4372 1.33881 30.5006C1.43817 30.5892 1.56764 30.6335 1.72722 30.6335C1.88679 30.6335 2.02027 30.5952 2.11561 30.5198C2.20995 30.4443 2.25812 30.3396 2.25812 30.2047C2.25812 30.092 2.21998 29.9994 2.14471 29.9259C2.06944 29.8525 1.9761 29.7921 1.86671 29.7448C1.75631 29.6975 1.60076 29.6431 1.39803 29.5827C1.10498 29.4921 0.865111 29.4015 0.679444 29.31C0.493777 29.2194 0.334201 29.0855 0.200721 28.9074C0.0672417 28.7302 0 28.4987 0 28.2129C0 27.7892 0.153554 27.457 0.459654 27.2165C0.765754 26.9769 1.16519 26.8561 1.65696 26.8561C2.14872 26.8561 2.56021 26.9759 2.86731 27.2165C3.1132 27.4087 3.26675 27.6623 3.32997 27.9764C3.35506 28.1012 3.25971 28.2189 3.13326 28.2189H2.32838C2.24207 28.2189 2.16479 28.1636 2.13869 28.08C2.1126 27.9965 2.06643 27.927 2.0012 27.8717C1.90184 27.7871 1.77438 27.7449 1.61982 27.7449C1.48634 27.7449 1.37796 27.7801 1.29666 27.8516C1.21437 27.923 1.17322 28.0257 1.17322 28.1595C1.17322 28.3065 1.24247 28.4212 1.37996 28.5038C1.51846 28.5863 1.73324 28.6749 2.02729 28.7695C2.32035 28.8691 2.5592 28.9637 2.74186 29.0553C2.92552 29.1459 3.08409 29.2777 3.21757 29.4509C3.35105 29.624 3.41829 29.8464 3.41829 30.1192C3.41829 30.3919 3.35204 30.6144 3.22057 30.8267C3.0891 31.0391 2.89842 31.2072 2.64752 31.333C2.39762 31.4588 2.10156 31.5212 1.76134 31.5212C1.42111 31.5212 1.13107 31.4669 0.868122 31.3592H0.866113Z" fill="#000066"/>
<path d="M9.3035 27.1218V27.608C9.3035 27.7187 9.21317 27.8093 9.10278 27.8093H8.3009C8.1905 27.8093 8.10017 27.8998 8.10017 28.0106V31.2736C8.10017 31.3843 8.00985 31.4749 7.89945 31.4749H7.19492C7.08452 31.4749 6.9942 31.3843 6.9942 31.2736V28.0106C6.9942 27.8998 6.90387 27.8093 6.79348 27.8093H5.9916C5.8812 27.8093 5.79087 27.7187 5.79087 27.608V27.1218C5.79087 27.0111 5.8812 26.9205 5.9916 26.9205H9.10378C9.21418 26.9205 9.3045 27.0111 9.3045 27.1218H9.3035Z" fill="#000066"/>
<path d="M13.077 30.6707C12.9906 30.6707 12.9144 30.7261 12.8873 30.8076L12.7076 31.339C12.6795 31.4205 12.6032 31.4759 12.5179 31.4759H11.7893C11.6498 31.4759 11.5535 31.337 11.6006 31.2062L13.099 27.0534C13.1281 26.9739 13.2034 26.9205 13.2877 26.9205H14.2873C14.3716 26.9205 14.4469 26.9739 14.476 27.0534L15.9744 31.2062C16.0215 31.337 15.9252 31.4759 15.7857 31.4759H15.045C14.9587 31.4759 14.8824 31.4205 14.8553 31.339L14.6757 30.8076C14.6476 30.7261 14.5713 30.6707 14.486 30.6707H13.077ZM14.2532 29.5485L13.9712 28.7131C13.9099 28.5299 13.652 28.5309 13.5908 28.7131L13.3118 29.5485C13.2686 29.6793 13.365 29.8132 13.5025 29.8132H14.0635C14.201 29.8132 14.2973 29.6783 14.2532 29.5475V29.5485Z" fill="#000066"/>
<path d="M19.7871 30.6707C19.7008 30.6707 19.6245 30.7261 19.5974 30.8076L19.4177 31.339C19.3896 31.4205 19.3134 31.4759 19.2281 31.4759H18.4995C18.36 31.4759 18.2636 31.337 18.3108 31.2062L19.8092 27.0534C19.8383 26.9739 19.9135 26.9205 19.9978 26.9205H20.9974C21.0817 26.9205 21.157 26.9739 21.1861 27.0534L22.6845 31.2062C22.7317 31.337 22.6353 31.4759 22.4958 31.4759H21.7552C21.6688 31.4759 21.5926 31.4205 21.5655 31.339L21.3858 30.8076C21.3577 30.7261 21.2815 30.6707 21.1961 30.6707H19.7871ZM20.9633 29.5485L20.6813 28.7131C20.6201 28.5309 20.3621 28.5309 20.3009 28.7131L20.0219 29.5485C19.9788 29.6793 20.0751 29.8132 20.2126 29.8132H20.7736C20.9111 29.8132 21.0075 29.6783 20.9633 29.5475V29.5485Z" fill="#000066"/>
<path d="M25.9704 31.3592C25.7074 31.2515 25.4967 31.0904 25.3391 30.8791C25.2247 30.7261 25.1504 30.5499 25.1143 30.3517C25.0922 30.2279 25.1876 30.1141 25.312 30.1141H26.1028C26.1891 30.1141 26.2694 30.1685 26.2935 30.252C26.3226 30.3547 26.3728 30.4372 26.4421 30.5006C26.5414 30.5892 26.6709 30.6335 26.8305 30.6335C26.99 30.6335 27.1235 30.5952 27.2189 30.5197C27.3132 30.4443 27.3614 30.3396 27.3614 30.2047C27.3614 30.092 27.3232 29.9994 27.248 29.9259C27.1727 29.8524 27.0793 29.7921 26.97 29.7448C26.8596 29.6974 26.704 29.6431 26.5013 29.5827C26.2082 29.4921 25.9684 29.4015 25.7827 29.3099C25.597 29.2194 25.4374 29.0855 25.304 28.9074C25.1705 28.7302 25.1032 28.4987 25.1032 28.2129C25.1032 27.7891 25.2558 27.457 25.5629 27.2165C25.869 26.9769 26.2684 26.8561 26.7602 26.8561C27.252 26.8561 27.6635 26.9759 27.9706 27.2165C28.2164 27.4087 28.37 27.6623 28.4332 27.9764C28.4583 28.1012 28.363 28.2189 28.2365 28.2189H27.4316C27.3453 28.2189 27.268 28.1636 27.2419 28.08C27.2158 27.9965 27.1707 27.927 27.1044 27.8717C27.0051 27.7871 26.8776 27.7449 26.7231 27.7449C26.5896 27.7449 26.4812 27.7801 26.3999 27.8515C26.3176 27.923 26.2775 28.0257 26.2775 28.1595C26.2775 28.3065 26.3467 28.4212 26.4842 28.5038C26.6227 28.5863 26.8375 28.6749 27.1315 28.7695C27.4246 28.8691 27.6635 28.9637 27.8461 29.0553C28.0288 29.1469 28.1883 29.2777 28.3218 29.4509C28.4553 29.624 28.5225 29.8464 28.5225 30.1192C28.5225 30.3919 28.4563 30.6144 28.3248 30.8267C28.1934 31.0391 28.0027 31.2072 27.7518 31.333C27.5019 31.4588 27.2058 31.5212 26.8656 31.5212C26.5254 31.5212 26.2353 31.4669 25.9724 31.3592H25.9704Z" fill="#000066"/>
<path d="M20.8522 13.8392C20.8331 13.7949 20.7618 13.6319 20.6113 13.3853L20.6053 13.3742C19.9228 12.256 17.6657 9.46703 11.628 8.21496C11.617 8.21194 11.6059 8.20992 11.5949 8.20791C11.5879 8.2059 11.5798 8.20489 11.5728 8.20389C11.5718 8.20389 11.5708 8.20389 11.5698 8.20389L11.5989 8.18677L12.2954 7.76506C11.0871 7.03334 10.2792 5.70377 10.2792 4.18397C10.2792 1.87307 12.1469 0 14.4511 0C16.7554 0 18.6231 1.87307 18.6231 4.18397C18.6231 5.57796 17.9427 6.81292 16.8969 7.57282C16.8016 7.65233 16.7022 7.72882 16.5989 7.80431H16.6019C17.2201 8.15759 17.7952 8.4857 18.3953 8.82992H18.3973C18.9282 9.24057 19.4863 9.7881 19.9329 10.4947C19.9329 10.4947 19.9339 10.4967 19.9359 10.5007C20.1958 10.9123 20.4176 11.3794 20.5731 11.9037C20.6294 12.0919 20.6765 12.2882 20.7147 12.4915C20.7658 12.6878 20.7709 12.8428 20.802 13.0391C20.803 13.0421 20.803 13.0441 20.804 13.0471C20.805 13.0511 20.806 13.0562 20.806 13.0602C20.8291 13.2011 20.8441 13.341 20.8522 13.4759C20.8532 13.494 20.8532 13.5111 20.8542 13.5282C20.8552 13.5715 20.8562 13.6128 20.8562 13.649C20.8562 13.7647 20.8522 13.8402 20.8522 13.8402V13.8392Z" fill="#000066"/>
<path d="M0.37954 34C0.317718 34 0.262319 33.9899 0.213343 33.9698C0.164367 33.9497 0.125025 33.9199 0.0953184 33.8804C0.0664145 33.841 0.0511597 33.7935 0.0495539 33.7379H0.268742C0.271953 33.7693 0.282792 33.7935 0.301259 33.8104C0.319725 33.8265 0.343812 33.8345 0.373518 33.8345C0.404028 33.8345 0.428115 33.8277 0.445778 33.814C0.463441 33.7995 0.472273 33.7798 0.472273 33.7548C0.472273 33.7339 0.465047 33.7166 0.450595 33.7029C0.436946 33.6892 0.419684 33.6779 0.398809 33.6691C0.378737 33.6602 0.349833 33.6501 0.312098 33.6389C0.257501 33.622 0.212941 33.6051 0.178417 33.5881C0.143893 33.5712 0.114186 33.5463 0.0892968 33.5133C0.0644073 33.4803 0.0519626 33.4372 0.0519626 33.384C0.0519626 33.3051 0.080465 33.2435 0.13747 33.1992C0.194475 33.1541 0.268742 33.1316 0.360271 33.1316C0.453405 33.1316 0.528475 33.1541 0.58548 33.1992C0.642485 33.2435 0.672995 33.3055 0.677009 33.3852H0.454208C0.452603 33.3579 0.442566 33.3365 0.4241 33.3212C0.405634 33.3051 0.381949 33.2971 0.353045 33.2971C0.328155 33.2971 0.308083 33.3039 0.292828 33.3176C0.277573 33.3305 0.269946 33.3494 0.269946 33.3744C0.269946 33.4017 0.282792 33.4231 0.308485 33.4384C0.334177 33.4537 0.374321 33.4702 0.428917 33.4879C0.483514 33.5064 0.527672 33.5241 0.561394 33.541C0.595918 33.5579 0.625624 33.5825 0.650514 33.6147C0.675403 33.6469 0.687848 33.6884 0.687848 33.7391C0.687848 33.7874 0.675403 33.8313 0.650514 33.8708C0.626427 33.9102 0.5911 33.9416 0.544533 33.965C0.497966 33.9883 0.442968 34 0.37954 34Z" fill="#000066"/>
<path d="M1.56729 33.1437V33.3091H1.34328V33.9915H1.13734V33.3091H0.91334V33.1437H1.56729Z" fill="#000066"/>
<path d="M2.34146 33.8418H2.02592L1.97534 33.9915H1.75977L2.06567 33.1437H2.30412L2.61002 33.9915H2.39204L2.34146 33.8418ZM2.28847 33.6824L2.18369 33.372L2.08012 33.6824H2.28847Z" fill="#000066"/>
<path d="M3.39802 33.1437V33.3091H3.05358V33.4879H3.31131V33.6485H3.05358V33.9915H2.84764V33.1437H3.39802Z" fill="#000066"/>
<path d="M4.20116 33.1437V33.3091H3.85672V33.4879H4.11444V33.6485H3.85672V33.9915H3.65078V33.1437H4.20116Z" fill="#000066"/>
<path d="M5.46183 33.1437V33.3091H5.23783V33.9915H5.03189V33.3091H4.80788V33.1437H5.46183Z" fill="#000066"/>
<path d="M5.91565 33.1437V33.9915H5.70971V33.1437H5.91565Z" fill="#000066"/>
<path d="M7.16685 33.1437V33.9915H6.96091V33.4831L6.77183 33.9915H6.60564L6.41535 33.4819V33.9915H6.20941V33.1437H6.45269L6.68994 33.7307L6.92478 33.1437H7.16685Z" fill="#000066"/>
<path d="M7.66541 33.3091V33.4807H7.9412V33.6401H7.66541V33.8261H7.97733V33.9915H7.45947V33.1437H7.97733V33.3091H7.66541Z" fill="#000066"/>
<path d="M9.18157 33.8418H8.86604L8.81546 33.9915H8.59988L8.90578 33.1437H9.14424L9.45014 33.9915H9.23215L9.18157 33.8418ZM9.12858 33.6824L9.0238 33.372L8.92023 33.6824H9.12858Z" fill="#000066"/>
<path d="M10.4441 33.9915H10.2381L9.8937 33.4686V33.9915H9.68776V33.1437H9.8937L10.2381 33.6691V33.1437H10.4441V33.9915Z" fill="#000066"/>
<path d="M11.0546 33.1437C11.1437 33.1437 11.2216 33.1614 11.2883 33.1968C11.3549 33.2323 11.4063 33.2822 11.4424 33.3466C11.4793 33.4102 11.4978 33.4839 11.4978 33.5676C11.4978 33.6505 11.4793 33.7242 11.4424 33.7886C11.4063 33.8531 11.3545 33.903 11.287 33.9384C11.2204 33.9738 11.1429 33.9915 11.0546 33.9915H10.7379V33.1437H11.0546ZM11.0414 33.8128C11.1192 33.8128 11.1799 33.7915 11.2232 33.7488C11.2666 33.7061 11.2883 33.6457 11.2883 33.5676C11.2883 33.4895 11.2666 33.4287 11.2232 33.3852C11.1799 33.3418 11.1192 33.32 11.0414 33.32H10.9438V33.8128H11.0414Z" fill="#000066"/>
<path d="M12.6834 33.8418H12.3679L12.3173 33.9915H12.1017L12.4076 33.1437H12.6461L12.952 33.9915H12.734L12.6834 33.8418ZM12.6304 33.6824L12.5257 33.372L12.4221 33.6824H12.6304Z" fill="#000066"/>
<path d="M13.7978 33.1437V33.3091H13.5738V33.9915H13.3679V33.3091H13.1439V33.1437H13.7978Z" fill="#000066"/>
<path d="M14.6539 33.1437V33.3091H14.4299V33.9915H14.2239V33.3091H13.9999V33.1437H14.6539Z" fill="#000066"/>
<path d="M15.1077 33.3091V33.4807H15.3835V33.6401H15.1077V33.8261H15.4196V33.9915H14.9017V33.1437H15.4196V33.3091H15.1077Z" fill="#000066"/>
<path d="M16.4541 33.9915H16.2482L15.9038 33.4686V33.9915H15.6978V33.1437H15.9038L16.2482 33.6691V33.1437H16.4541V33.9915Z" fill="#000066"/>
<path d="M17.0647 33.1437C17.1538 33.1437 17.2317 33.1614 17.2983 33.1968C17.365 33.2323 17.4163 33.2822 17.4525 33.3466C17.4894 33.4102 17.5079 33.4839 17.5079 33.5676C17.5079 33.6505 17.4894 33.7242 17.4525 33.7886C17.4163 33.8531 17.3646 33.903 17.2971 33.9384C17.2305 33.9738 17.153 33.9915 17.0647 33.9915H16.7479V33.1437H17.0647ZM17.0514 33.8128C17.1293 33.8128 17.1899 33.7915 17.2333 33.7488C17.2766 33.7061 17.2983 33.6457 17.2983 33.5676C17.2983 33.4895 17.2766 33.4287 17.2333 33.3852C17.1899 33.3418 17.1293 33.32 17.0514 33.32H16.9539V33.8128H17.0514Z" fill="#000066"/>
<path d="M18.2938 33.8418H17.9782L17.9277 33.9915H17.7121L18.018 33.1437H18.2564L18.5623 33.9915H18.3444L18.2938 33.8418ZM18.2408 33.6824L18.136 33.372L18.0324 33.6824H18.2408Z" fill="#000066"/>
<path d="M19.5563 33.9915H19.3503L19.0059 33.4686V33.9915H18.8V33.1437H19.0059L19.3503 33.6691V33.1437H19.5563V33.9915Z" fill="#000066"/>
<path d="M19.8152 33.5664C19.8152 33.4827 19.8332 33.4082 19.8693 33.343C19.9055 33.2769 19.9557 33.2258 20.0199 33.1896C20.0849 33.1525 20.1584 33.134 20.2403 33.134C20.3406 33.134 20.4265 33.1606 20.498 33.2137C20.5695 33.2669 20.6172 33.3393 20.6413 33.4311H20.4149C20.398 33.3957 20.374 33.3687 20.3426 33.3502C20.3121 33.3317 20.2772 33.3224 20.2379 33.3224C20.1744 33.3224 20.1231 33.3446 20.0837 33.3889C20.0444 33.4331 20.0247 33.4923 20.0247 33.5664C20.0247 33.6405 20.0444 33.6997 20.0837 33.7439C20.1231 33.7882 20.1744 33.8104 20.2379 33.8104C20.2772 33.8104 20.3121 33.8011 20.3426 33.7826C20.374 33.7641 20.398 33.7371 20.4149 33.7017H20.6413C20.6172 33.7935 20.5695 33.8659 20.498 33.9191C20.4265 33.9714 20.3406 33.9976 20.2403 33.9976C20.1584 33.9976 20.0849 33.9795 20.0199 33.9432C19.9557 33.9062 19.9055 33.8551 19.8693 33.7898C19.8332 33.7246 19.8152 33.6501 19.8152 33.5664Z" fill="#000066"/>
<path d="M21.1179 33.3091V33.4807H21.3937V33.6401H21.1179V33.8261H21.4298V33.9915H20.912V33.1437H21.4298V33.3091H21.1179Z" fill="#000066"/>
<path d="M22.4137 34C22.3518 34 22.2964 33.9899 22.2475 33.9698C22.1985 33.9497 22.1592 33.9199 22.1294 33.8804C22.1005 33.841 22.0853 33.7935 22.0837 33.7379H22.3029C22.3061 33.7693 22.3169 33.7935 22.3354 33.8104C22.3539 33.8265 22.3779 33.8345 22.4076 33.8345C22.4382 33.8345 22.4622 33.8277 22.4799 33.814C22.4976 33.7995 22.5064 33.7798 22.5064 33.7548C22.5064 33.7339 22.4992 33.7166 22.4847 33.7029C22.4711 33.6892 22.4538 33.6779 22.4329 33.6691C22.4129 33.6602 22.384 33.6501 22.3462 33.6389C22.2916 33.622 22.2471 33.6051 22.2125 33.5881C22.178 33.5712 22.1483 33.5463 22.1234 33.5133C22.0985 33.4803 22.0861 33.4372 22.0861 33.384C22.0861 33.3051 22.1146 33.2435 22.1716 33.1992C22.2286 33.1541 22.3029 33.1316 22.3944 33.1316C22.4875 33.1316 22.5626 33.1541 22.6196 33.1992C22.6766 33.2435 22.7071 33.3055 22.7111 33.3852H22.4883C22.4867 33.3579 22.4767 33.3365 22.4582 33.3212C22.4398 33.3051 22.4161 33.2971 22.3872 33.2971C22.3623 33.2971 22.3422 33.3039 22.327 33.3176C22.3117 33.3305 22.3041 33.3494 22.3041 33.3744C22.3041 33.4017 22.3169 33.4231 22.3426 33.4384C22.3683 33.4537 22.4085 33.4702 22.463 33.4879C22.5176 33.5064 22.5618 33.5241 22.5955 33.541C22.63 33.5579 22.6598 33.5825 22.6846 33.6147C22.7095 33.6469 22.722 33.6884 22.722 33.7391C22.722 33.7874 22.7095 33.8313 22.6846 33.8708C22.6606 33.9102 22.6252 33.9416 22.5787 33.965C22.5321 33.9883 22.4771 34 22.4137 34Z" fill="#000066"/>
<path d="M23.3931 34C23.3136 34 23.2405 33.9815 23.1739 33.9444C23.108 33.9074 23.0555 33.8559 23.0161 33.7898C22.9776 33.723 22.9583 33.6481 22.9583 33.5652C22.9583 33.4823 22.9776 33.4078 23.0161 33.3418C23.0555 33.2757 23.108 33.2242 23.1739 33.1872C23.2405 33.1501 23.3136 33.1316 23.3931 33.1316C23.4726 33.1316 23.5452 33.1501 23.6111 33.1872C23.6777 33.2242 23.7299 33.2757 23.7676 33.3418C23.8062 33.4078 23.8254 33.4823 23.8254 33.5652C23.8254 33.6481 23.8062 33.723 23.7676 33.7898C23.7291 33.8559 23.6769 33.9074 23.6111 33.9444C23.5452 33.9815 23.4726 34 23.3931 34ZM23.3931 33.8116C23.4605 33.8116 23.5143 33.789 23.5544 33.7439C23.5954 33.6989 23.6159 33.6393 23.6159 33.5652C23.6159 33.4903 23.5954 33.4307 23.5544 33.3864C23.5143 33.3414 23.4605 33.3188 23.3931 33.3188C23.3248 33.3188 23.2702 33.341 23.2293 33.3852C23.1891 33.4295 23.1691 33.4895 23.1691 33.5652C23.1691 33.6401 23.1891 33.7001 23.2293 33.7452C23.2702 33.7894 23.3248 33.8116 23.3931 33.8116Z" fill="#000066"/>
<path d="M24.2905 33.8321H24.5602V33.9915H24.0845V33.1437H24.2905V33.8321Z" fill="#000066"/>
<path d="M25.0053 33.1437V33.651C25.0053 33.7017 25.0177 33.7407 25.0426 33.7681C25.0675 33.7955 25.1041 33.8092 25.1522 33.8092C25.2004 33.8092 25.2373 33.7955 25.263 33.7681C25.2887 33.7407 25.3016 33.7017 25.3016 33.651V33.1437H25.5075V33.6497C25.5075 33.7254 25.4914 33.7894 25.4593 33.8418C25.4272 33.8941 25.3839 33.9336 25.3293 33.9601C25.2755 33.9867 25.2153 34 25.1486 34C25.082 34 25.0222 33.9871 24.9692 33.9613C24.917 33.9348 24.8756 33.8953 24.8451 33.843C24.8146 33.7898 24.7994 33.7254 24.7994 33.6497V33.1437H25.0053Z" fill="#000066"/>
<path d="M26.4048 33.1437V33.3091H26.1808V33.9915H25.9749V33.3091H25.7509V33.1437H26.4048Z" fill="#000066"/>
<path d="M26.8586 33.1437V33.9915H26.6527V33.1437H26.8586Z" fill="#000066"/>
<path d="M27.5522 34C27.4728 34 27.3997 33.9815 27.333 33.9444C27.2672 33.9074 27.2146 33.8559 27.1753 33.7898C27.1367 33.723 27.1175 33.6481 27.1175 33.5652C27.1175 33.4823 27.1367 33.4078 27.1753 33.3418C27.2146 33.2757 27.2672 33.2242 27.333 33.1872C27.3997 33.1501 27.4728 33.1316 27.5522 33.1316C27.6317 33.1316 27.7044 33.1501 27.7702 33.1872C27.8369 33.2242 27.889 33.2757 27.9268 33.3418C27.9653 33.4078 27.9846 33.4823 27.9846 33.5652C27.9846 33.6481 27.9653 33.723 27.9268 33.7898C27.8882 33.8559 27.8361 33.9074 27.7702 33.9444C27.7044 33.9815 27.6317 34 27.5522 34ZM27.5522 33.8116C27.6197 33.8116 27.6735 33.789 27.7136 33.7439C27.7546 33.6989 27.775 33.6393 27.775 33.5652C27.775 33.4903 27.7546 33.4307 27.7136 33.3864C27.6735 33.3414 27.6197 33.3188 27.5522 33.3188C27.484 33.3188 27.4294 33.341 27.3885 33.3852C27.3483 33.4295 27.3282 33.4895 27.3282 33.5652C27.3282 33.6401 27.3483 33.7001 27.3885 33.7452C27.4294 33.7894 27.484 33.8116 27.5522 33.8116Z" fill="#000066"/>
<path d="M29 33.9915H28.7941L28.4496 33.4686V33.9915H28.2437V33.1437H28.4496L28.7941 33.6691V33.1437H29V33.9915Z" fill="#000066"/>
</svg>
