<svg  viewBox="0 0 121 134" fill="none" xmlns="http://www.w3.org/2000/svg">
<path d="M89.1433 68.2479C89.1433 68.2479 87.2045 85.5429 66.108 91.973C77.5398 82.7463 78.8044 71.0722 61.0286 63.9717C58.445 62.9443 55.4593 62.0082 52.0424 61.191C40.7027 58.4818 32.6795 53.7772 27.1856 49.2353C25.4771 47.8231 24.0157 46.4268 22.772 45.1138C17.3408 39.3581 15.1968 31.4444 17.2696 23.979C19.3006 16.6326 25.0876 7.94935 40.1541 2.84811C40.129 2.86795 40.0411 2.94728 39.8945 3.07818C39.8903 3.08215 39.8903 3.08612 39.8861 3.08612C38.9063 3.9826 35.4935 7.27897 33.4207 11.5353C32.9015 13.0982 32.6209 14.7603 32.6209 16.4858C32.6209 19.7147 33.605 22.7295 35.3009 25.2721C36.5111 27.0889 38.1986 28.5685 40.1458 29.6752C41.4774 30.4329 42.9933 31.1588 44.7185 31.853C45.556 32.1901 46.4395 32.5194 47.3775 32.8407C47.4194 32.8566 47.4655 32.8724 47.5115 32.8843C49.2368 33.4714 51.1379 34.0267 53.2233 34.5424C62.13 36.7559 68.8425 39.7309 73.8968 42.9995C73.9009 42.9995 73.9009 43.0035 73.9009 43.0035C76.3925 44.61 78.482 46.2919 80.2324 47.9897C80.6553 48.4022 81.0615 48.8148 81.4467 49.2273C90.2948 58.6999 89.1433 68.2479 89.1433 68.2479Z" fill="white"/>
<path d="M3.61378 123.592C2.51667 123.168 1.63731 122.533 0.979878 121.7C0.502507 121.097 0.192639 120.403 0.04189 119.621C-0.0502342 119.133 0.347563 118.685 0.866808 118.685H4.16653C4.52665 118.685 4.86166 118.899 4.96216 119.229C5.0836 119.633 5.29297 119.958 5.58609 120.208C6.00065 120.557 6.54085 120.732 7.20666 120.732C7.87247 120.732 8.4294 120.581 8.82721 120.284C9.22083 119.986 9.42179 119.574 9.42179 119.042C9.42179 118.598 9.26267 118.233 8.94861 117.943C8.63455 117.654 8.24511 117.416 7.78867 117.229C7.32805 117.043 6.67903 116.829 5.83316 116.591C4.61042 116.234 3.6096 115.877 2.83492 115.516C2.06024 115.159 1.39443 114.631 0.837493 113.929C0.28056 113.231 0 112.319 0 111.192C0 109.522 0.640689 108.213 1.91787 107.265C3.19504 106.321 4.86165 105.845 6.91351 105.845C8.96536 105.845 10.6822 106.317 11.9636 107.265C12.9895 108.023 13.6302 109.022 13.894 110.26C13.9987 110.752 13.6009 111.216 13.0732 111.216H9.71495C9.35482 111.216 9.03238 110.998 8.92351 110.668C8.81464 110.339 8.62201 110.065 8.34983 109.847C7.93527 109.514 7.40344 109.347 6.75857 109.347C6.20164 109.347 5.74941 109.486 5.41022 109.768C5.06685 110.05 4.89515 110.454 4.89515 110.982C4.89515 111.561 5.18408 112.013 5.75776 112.338C6.33563 112.664 7.23178 113.013 8.45871 113.386C9.68145 113.778 10.6781 114.151 11.4402 114.512C12.2065 114.869 12.8681 115.389 13.425 116.071C13.982 116.753 14.2625 117.63 14.2625 118.705C14.2625 119.78 13.9861 120.657 13.4376 121.494C12.889 122.331 12.0934 122.993 11.0465 123.489C10.0039 123.985 8.76857 124.231 7.34902 124.231C5.92947 124.231 4.71928 124.016 3.62217 123.592H3.61378Z" fill="white"/>
<path d="M38.818 106.892V108.808C38.818 109.244 38.4412 109.601 37.9806 109.601H34.6348C34.1742 109.601 33.7973 109.958 33.7973 110.395V123.255C33.7973 123.691 33.4204 124.048 32.9598 124.048H30.0202C29.5596 124.048 29.1827 123.691 29.1827 123.255V110.395C29.1827 109.958 28.8058 109.601 28.3452 109.601H24.9994C24.5388 109.601 24.1619 109.244 24.1619 108.808V106.892C24.1619 106.456 24.5388 106.099 24.9994 106.099H37.9847C38.4454 106.099 38.8222 106.456 38.8222 106.892H38.818Z" fill="white"/>
<path d="M54.5625 120.879C54.2023 120.879 53.8841 121.097 53.771 121.418L53.0215 123.513C52.9042 123.834 52.5859 124.052 52.23 124.052H49.1899C48.6079 124.052 48.2059 123.505 48.4027 122.989L54.6546 106.622C54.776 106.309 55.0901 106.099 55.4418 106.099H59.6125C59.9643 106.099 60.2783 106.309 60.3998 106.622L66.6517 122.989C66.8485 123.505 66.4465 124.052 65.8644 124.052H62.7741C62.4139 124.052 62.0957 123.834 61.9826 123.513L61.2331 121.418C61.1158 121.097 60.7976 120.879 60.4416 120.879H54.5625ZM59.4702 116.456L58.2935 113.163C58.0381 112.441 56.9619 112.445 56.7064 113.163L55.5423 116.456C55.3622 116.971 55.7643 117.499 56.3379 117.499H58.6787C59.2524 117.499 59.6544 116.967 59.4702 116.452V116.456Z" fill="white"/>
<path d="M82.5599 120.879C82.1998 120.879 81.8815 121.097 81.7685 121.418L81.0189 123.513C80.9016 123.834 80.5834 124.052 80.2274 124.052H77.1874C76.6053 124.052 76.2033 123.505 76.4002 122.989L82.652 106.622C82.7734 106.309 83.0875 106.099 83.4393 106.099H87.61C87.9617 106.099 88.2758 106.309 88.3972 106.622L94.6491 122.989C94.8459 123.505 94.4439 124.052 93.8619 124.052H90.7715C90.4114 124.052 90.0931 123.834 89.9801 123.513L89.2305 121.418C89.1132 121.097 88.795 120.879 88.4391 120.879H82.5599ZM87.4676 116.456L86.2909 113.163C86.0355 112.445 84.9593 112.445 84.7039 113.163L83.5397 116.456C83.3597 116.971 83.7617 117.499 84.3354 117.499H86.6762C87.2498 117.499 87.6518 116.967 87.4676 116.452V116.456Z" fill="white"/>
<path d="M108.359 123.592C107.262 123.168 106.383 122.533 105.725 121.7C105.248 121.097 104.938 120.403 104.787 119.621C104.695 119.133 105.093 118.685 105.612 118.685H108.912C109.272 118.685 109.607 118.899 109.707 119.229C109.829 119.633 110.038 119.958 110.327 120.208C110.742 120.557 111.282 120.732 111.948 120.732C112.614 120.732 113.171 120.581 113.568 120.284C113.962 119.986 114.163 119.574 114.163 119.042C114.163 118.598 114.004 118.233 113.69 117.943C113.376 117.654 112.986 117.416 112.53 117.229C112.069 117.043 111.42 116.829 110.574 116.591C109.352 116.234 108.351 115.877 107.576 115.516C106.801 115.159 106.136 114.631 105.579 113.929C105.022 113.231 104.741 112.318 104.741 111.192C104.741 109.522 105.378 108.213 106.659 107.265C107.936 106.321 109.603 105.845 111.655 105.845C113.706 105.845 115.423 106.317 116.705 107.265C117.731 108.022 118.371 109.022 118.635 110.26C118.74 110.752 118.342 111.216 117.814 111.216H114.456C114.096 111.216 113.774 110.998 113.665 110.668C113.556 110.339 113.367 110.065 113.091 109.847C112.676 109.514 112.145 109.347 111.5 109.347C110.943 109.347 110.491 109.486 110.151 109.768C109.808 110.05 109.641 110.454 109.641 110.982C109.641 111.561 109.929 112.013 110.503 112.338C111.081 112.664 111.977 113.013 113.204 113.386C114.427 113.778 115.423 114.151 116.186 114.512C116.948 114.873 117.613 115.389 118.17 116.071C118.727 116.753 119.008 117.63 119.008 118.705C119.008 119.78 118.731 120.657 118.183 121.494C117.634 122.331 116.839 122.993 115.792 123.489C114.749 123.985 113.514 124.231 112.094 124.231C110.675 124.231 109.465 124.016 108.368 123.592H108.359Z" fill="white"/>
<path d="M87.0038 54.5428C86.9243 54.3682 86.6269 53.7256 85.9988 52.7538L85.9737 52.7101C83.1262 48.3031 73.7087 37.3112 48.5169 32.3766C48.4708 32.3647 48.4247 32.3568 48.3787 32.3488C48.3493 32.3409 48.3159 32.3369 48.2865 32.333C48.2824 32.333 48.2782 32.333 48.274 32.333L48.3954 32.2655L51.3015 30.6035C46.2598 27.7196 42.8889 22.4796 42.8889 16.4898C42.8889 7.38212 50.6817 0 60.2962 0C69.9106 0 77.7035 7.38212 77.7035 16.4898C77.7035 21.9837 74.8644 26.8509 70.5011 29.8458C70.1032 30.1592 69.6887 30.4607 69.2573 30.7582H69.2699C71.8494 32.1505 74.2488 33.4436 76.7529 34.8003H76.7613C78.9765 36.4187 81.3047 38.5766 83.1681 41.3613C83.1681 41.3613 83.1723 41.3692 83.1807 41.3851C84.2652 43.0075 85.1906 44.848 85.8397 46.9147C86.0742 47.6565 86.271 48.43 86.4301 49.2313C86.6437 50.0048 86.6646 50.6157 86.7944 51.3892C86.7986 51.4011 86.7986 51.409 86.8028 51.4209C86.807 51.4368 86.8112 51.4567 86.8112 51.4725C86.9075 52.0279 86.9703 52.5792 87.0038 53.1108C87.008 53.1822 87.008 53.2496 87.0122 53.3171C87.0164 53.4876 87.0206 53.6503 87.0206 53.7931C87.0206 54.2492 87.0038 54.5467 87.0038 54.5467V54.5428Z" fill="white"/>
<path d="M1.5836 134C1.32565 134 1.0945 133.96 0.890154 133.881C0.685805 133.802 0.521657 133.684 0.397708 133.529C0.277109 133.373 0.213459 133.186 0.20676 132.967H1.1213C1.1347 133.091 1.17993 133.186 1.25698 133.253C1.33402 133.316 1.43452 133.348 1.55847 133.348C1.68577 133.348 1.78627 133.321 1.85997 133.267C1.93367 133.21 1.97052 133.132 1.97052 133.034C1.97052 132.951 1.94037 132.883 1.88007 132.829C1.82312 132.775 1.7511 132.731 1.664 132.696C1.58025 132.661 1.45965 132.621 1.3022 132.577C1.0744 132.51 0.888479 132.443 0.74443 132.377C0.600381 132.31 0.476432 132.212 0.372583 132.082C0.268734 131.952 0.216809 131.782 0.216809 131.572C0.216809 131.261 0.335733 131.019 0.573581 130.844C0.811429 130.666 1.1213 130.577 1.5032 130.577C1.8918 130.577 2.20502 130.666 2.44287 130.844C2.68071 131.019 2.80801 131.263 2.82476 131.577H1.89515C1.88845 131.469 1.84657 131.385 1.76952 131.325C1.69247 131.261 1.59365 131.23 1.47305 131.23C1.3692 131.23 1.28545 131.257 1.2218 131.311C1.15815 131.361 1.12633 131.436 1.12633 131.534C1.12633 131.642 1.17993 131.726 1.28713 131.787C1.39432 131.847 1.56182 131.912 1.78962 131.982C2.01742 132.055 2.20167 132.125 2.34237 132.191C2.48642 132.258 2.61036 132.355 2.71421 132.482C2.81806 132.608 2.86999 132.772 2.86999 132.972C2.86999 133.162 2.81806 133.335 2.71421 133.491C2.61371 133.646 2.46632 133.77 2.27202 133.862C2.07772 133.954 1.84825 134 1.5836 134Z" fill="white"/>
<path d="M6.53938 130.625V131.277H5.60474V133.967H4.74547V131.277H3.81083V130.625H6.53938Z" fill="white"/>
<path d="M9.76953 133.376H8.45299L8.24194 133.967H7.34247L8.61881 130.625H9.61375L10.8901 133.967H9.98058L9.76953 133.376ZM9.54843 132.748L9.11126 131.525L8.67911 132.748H9.54843Z" fill="white"/>
<path d="M14.1779 130.625V131.277H12.7408V131.982H13.8161V132.615H12.7408V133.967H11.8815V130.625H14.1779Z" fill="white"/>
<path d="M17.529 130.625V131.277H16.0918V131.982H17.1672V132.615H16.0918V133.967H15.2326V130.625H17.529Z" fill="white"/>
<path d="M22.789 130.625V131.277H21.8544V133.967H20.9951V131.277H20.0605V130.625H22.789Z" fill="white"/>
<path d="M24.6825 130.625V133.967H23.8233V130.625H24.6825Z" fill="white"/>
<path d="M29.9031 130.625V133.967H29.0438V131.963L28.2549 133.967H27.5614L26.7675 131.958V133.967H25.9082V130.625H26.9233L27.9132 132.938L28.8931 130.625H29.9031Z" fill="white"/>
<path d="M31.9832 131.277V131.953H33.134V132.581H31.9832V133.315H33.2847V133.967H31.124V130.625H33.2847V131.277H31.9832Z" fill="white"/>
<path d="M38.3093 133.376H36.9928L36.7817 133.967H35.8823L37.1586 130.625H38.1535L39.4299 133.967H38.5204L38.3093 133.376ZM38.0882 132.748L37.651 131.525L37.2189 132.748H38.0882Z" fill="white"/>
<path d="M43.577 133.967H42.7177L41.2806 131.906V133.967H40.4213V130.625H41.2806L42.7177 132.696V130.625H43.577V133.967Z" fill="white"/>
<path d="M46.1244 130.625C46.4963 130.625 46.8212 130.695 47.0993 130.835C47.3773 130.974 47.5917 131.171 47.7425 131.425C47.8966 131.675 47.9736 131.966 47.9736 132.296C47.9736 132.623 47.8966 132.913 47.7425 133.167C47.5917 133.421 47.3756 133.618 47.0942 133.757C46.8162 133.897 46.4929 133.967 46.1244 133.967H44.8029V130.625H46.1244ZM46.0691 133.262C46.3941 133.262 46.647 133.178 46.8279 133.01C47.0088 132.842 47.0993 132.604 47.0993 132.296C47.0993 131.988 47.0088 131.748 46.8279 131.577C46.647 131.406 46.3941 131.32 46.0691 131.32H45.6621V133.262H46.0691Z" fill="white"/>
<path d="M52.9206 133.376H51.604L51.393 133.967H50.4935L51.7698 130.625H52.7648L54.0411 133.967H53.1316L52.9206 133.376ZM52.6995 132.748L52.2623 131.525L51.8301 132.748H52.6995Z" fill="white"/>
<path d="M57.5702 130.625V131.277H56.6355V133.967H55.7763V131.277H54.8416V130.625H57.5702Z" fill="white"/>
<path d="M61.142 130.625V131.277H60.2074V133.967H59.3481V131.277H58.4135V130.625H61.142Z" fill="white"/>
<path d="M63.0355 131.277V131.953H64.1862V132.581H63.0355V133.315H64.337V133.967H62.1763V130.625H64.337V131.277H63.0355Z" fill="white"/>
<path d="M68.6535 133.967H67.7942L66.3571 131.906V133.967H65.4978V130.625H66.3571L67.7942 132.696V130.625H68.6535V133.967Z" fill="white"/>
<path d="M71.2009 130.625C71.5728 130.625 71.8977 130.695 72.1758 130.835C72.4538 130.974 72.6682 131.171 72.819 131.425C72.9731 131.675 73.0501 131.966 73.0501 132.296C73.0501 132.623 72.9731 132.913 72.819 133.167C72.6682 133.421 72.4521 133.618 72.1707 133.757C71.8927 133.897 71.5694 133.967 71.2009 133.967H69.8794V130.625H71.2009ZM71.1456 133.262C71.4706 133.262 71.7235 133.178 71.9044 133.01C72.0853 132.842 72.1758 132.604 72.1758 132.296C72.1758 131.988 72.0853 131.748 71.9044 131.577C71.7235 131.406 71.4706 131.32 71.1456 131.32H70.7386V133.262H71.1456Z" fill="white"/>
<path d="M76.3292 133.376H75.0127L74.8016 133.967H73.9021L75.1785 130.625H76.1734L77.4498 133.967H76.5403L76.3292 133.376ZM76.1081 132.748L75.6709 131.525L75.2388 132.748H76.1081Z" fill="white"/>
<path d="M81.5969 133.967H80.7376L79.3005 131.906V133.967H78.4412V130.625H79.3005L80.7376 132.696V130.625H81.5969V133.967Z" fill="white"/>
<path d="M82.677 132.291C82.677 131.961 82.7524 131.668 82.9031 131.411C83.0539 131.15 83.2633 130.949 83.5313 130.806C83.8026 130.66 84.1091 130.587 84.4508 130.587C84.8696 130.587 85.228 130.692 85.5262 130.901C85.8243 131.111 86.0236 131.396 86.1241 131.758H85.1795C85.1091 131.618 85.0086 131.512 84.8779 131.439C84.7506 131.366 84.6049 131.33 84.4408 131.33C84.1761 131.33 83.9617 131.417 83.7976 131.591C83.6334 131.766 83.5514 131.999 83.5514 132.291C83.5514 132.583 83.6334 132.816 83.7976 132.991C83.9617 133.165 84.1761 133.253 84.4408 133.253C84.6049 133.253 84.7506 133.216 84.8779 133.143C85.0086 133.07 85.1091 132.964 85.1795 132.824H86.1241C86.0236 133.186 85.8243 133.472 85.5262 133.681C85.228 133.887 84.8696 133.99 84.4508 133.99C84.1091 133.99 83.8026 133.919 83.5313 133.776C83.2633 133.63 83.0539 133.429 82.9031 133.172C82.7524 132.915 82.677 132.621 82.677 132.291Z" fill="white"/>
<path d="M88.1126 131.277V131.953H89.2633V132.581H88.1126V133.315H89.4141V133.967H87.2533V130.625H89.4141V131.277H88.1126Z" fill="white"/>
<path d="M93.5191 134C93.2612 134 93.03 133.96 92.8257 133.881C92.6213 133.802 92.4572 133.684 92.3332 133.529C92.2126 133.373 92.149 133.186 92.1423 132.967H93.0568C93.0702 133.091 93.1154 133.186 93.1925 133.253C93.2695 133.316 93.37 133.348 93.494 133.348C93.6213 133.348 93.7218 133.321 93.7955 133.267C93.8692 133.21 93.906 133.132 93.906 133.034C93.906 132.951 93.8759 132.883 93.8156 132.829C93.7586 132.775 93.6866 132.731 93.5995 132.696C93.5158 132.661 93.3952 132.621 93.2377 132.577C93.0099 132.51 92.824 132.443 92.6799 132.377C92.5359 132.31 92.4119 132.212 92.3081 132.082C92.2042 131.952 92.1523 131.782 92.1523 131.572C92.1523 131.261 92.2712 131.019 92.5091 130.844C92.7469 130.666 93.0568 130.577 93.4387 130.577C93.8273 130.577 94.1405 130.666 94.3784 130.844C94.6162 131.019 94.7435 131.263 94.7603 131.577H93.8307C93.824 131.469 93.7821 131.385 93.705 131.325C93.628 131.261 93.5292 131.23 93.4086 131.23C93.3047 131.23 93.221 131.257 93.1573 131.311C93.0937 131.361 93.0618 131.436 93.0618 131.534C93.0618 131.642 93.1154 131.726 93.2226 131.787C93.3298 131.847 93.4973 131.912 93.7251 131.982C93.9529 132.055 94.1372 132.125 94.2779 132.191C94.4219 132.258 94.5459 132.355 94.6497 132.482C94.7536 132.608 94.8055 132.772 94.8055 132.972C94.8055 133.162 94.7536 133.335 94.6497 133.491C94.5492 133.646 94.4018 133.77 94.2075 133.862C94.0132 133.954 93.7838 134 93.5191 134Z" fill="white"/>
<path d="M97.6056 134C97.2739 134 96.9691 133.927 96.691 133.781C96.4163 133.635 96.1969 133.432 96.0328 133.172C95.872 132.908 95.7916 132.613 95.7916 132.286C95.7916 131.96 95.872 131.666 96.0328 131.406C96.1969 131.146 96.4163 130.942 96.691 130.796C96.9691 130.65 97.2739 130.577 97.6056 130.577C97.9372 130.577 98.2404 130.65 98.5151 130.796C98.7931 130.942 99.0109 131.146 99.1683 131.406C99.3291 131.666 99.4095 131.96 99.4095 132.286C99.4095 132.613 99.3291 132.908 99.1683 133.172C99.0075 133.432 98.7898 133.635 98.5151 133.781C98.2404 133.927 97.9372 134 97.6056 134ZM97.6056 133.257C97.887 133.257 98.1114 133.169 98.2789 132.991C98.4498 132.813 98.5352 132.578 98.5352 132.286C98.5352 131.991 98.4498 131.756 98.2789 131.582C98.1114 131.404 97.887 131.315 97.6056 131.315C97.3208 131.315 97.093 131.403 96.9222 131.577C96.7547 131.752 96.6709 131.988 96.6709 132.286C96.6709 132.581 96.7547 132.818 96.9222 132.996C97.093 133.17 97.3208 133.257 97.6056 133.257Z" fill="white"/>
<path d="M101.35 133.338H102.475V133.967H100.491V130.625H101.35V133.338Z" fill="white"/>
<path d="M104.332 130.625V132.624C104.332 132.824 104.384 132.978 104.488 133.086C104.592 133.194 104.745 133.248 104.946 133.248C105.147 133.248 105.301 133.194 105.408 133.086C105.515 132.978 105.569 132.824 105.569 132.624V130.625H106.428V132.62C106.428 132.918 106.361 133.17 106.227 133.376C106.093 133.583 105.912 133.738 105.684 133.843C105.46 133.948 105.208 134 104.93 134C104.652 134 104.403 133.949 104.182 133.848C103.964 133.743 103.791 133.587 103.664 133.381C103.537 133.172 103.473 132.918 103.473 132.62V130.625H104.332Z" fill="white"/>
<path d="M110.172 130.625V131.277H109.237V133.967H108.378V131.277H107.443V130.625H110.172Z" fill="white"/>
<path d="M112.065 130.625V133.967H111.206V130.625H112.065Z" fill="white"/>
<path d="M114.959 134C114.628 134 114.323 133.927 114.045 133.781C113.77 133.635 113.551 133.432 113.387 133.172C113.226 132.908 113.145 132.613 113.145 132.286C113.145 131.96 113.226 131.666 113.387 131.406C113.551 131.146 113.77 130.942 114.045 130.796C114.323 130.65 114.628 130.577 114.959 130.577C115.291 130.577 115.594 130.65 115.869 130.796C116.147 130.942 116.365 131.146 116.522 131.406C116.683 131.666 116.763 131.96 116.763 132.286C116.763 132.613 116.683 132.908 116.522 133.172C116.361 133.432 116.144 133.635 115.869 133.781C115.594 133.927 115.291 134 114.959 134ZM114.959 133.257C115.241 133.257 115.465 133.169 115.633 132.991C115.804 132.813 115.889 132.578 115.889 132.286C115.889 131.991 115.804 131.756 115.633 131.582C115.465 131.404 115.241 131.315 114.959 131.315C114.675 131.315 114.447 131.403 114.276 131.577C114.108 131.752 114.025 131.988 114.025 132.286C114.025 132.581 114.108 132.818 114.276 132.996C114.447 133.17 114.675 133.257 114.959 133.257Z" fill="white"/>
<path d="M121 133.967H120.141L118.704 131.906V133.967H117.844V130.625H118.704L120.141 132.696V130.625H121V133.967Z" fill="white"/>
</svg>
